Coordinates
version=1
nRows=6
nColumns=36
inDegrees=yes

Units are S.I. units (second, meters, Newtons, ...)
If the header above contains a line with 'inDegrees', this indicates whether rotational values are in degrees (yes) or radians (no).

endheader
time	pelvis_tilt	pelvis_list	pelvis_rotation	pelvis_tx	pelvis_ty	pelvis_tz	hip_flexion_r	hip_adduction_r	hip_rotation_r	knee_angle_r	knee_angle_r_beta	ankle_angle_r	subtalar_angle_r	mtp_angle_r	hip_flexion_l	hip_adduction_l	hip_rotation_l	knee_angle_l	knee_angle_l_beta	ankle_angle_l	subtalar_angle_l	mtp_angle_l	lumbar_extension	lumbar_bending	lumbar_rotation	arm_flex_r	arm_add_r	arm_rot_r	elbow_flex_r	pro_sup_r	arm_flex_l	arm_add_l	arm_rot_l	elbow_flex_l	pro_sup_l
     44.58333330	     -1.10700786	     -2.32528852	      1.52120803	      0.70503063	      1.05052452	      0.91506512	     -1.15369007	      4.27563933	     -6.37494412	      9.69738195	      0.16925124	     13.19702186	     -0.41630060	     -7.49999987	     25.61872178	     -7.53023368	     -1.93510770	     43.38114490	      0.75714381	      1.83749160	     -9.88819058	     -7.49999987	    -11.54265717	      5.99360061	      4.90864837	     10.00180082	    -14.82691113	     -1.85222300	     36.02242297	     72.65628376	     -3.63800279	     -6.36974429	     -5.48512321	     19.56386299	     68.00820673
     44.60000000	     -1.42780748	     -2.15948509	      1.31588358	      0.70222178	      1.04873172	      0.91462066	     -2.43604323	      4.07469705	     -6.16435096	      8.64161795	      0.15082469	     13.92360339	      0.20875976	     -7.49999987	     26.51441790	     -7.37076689	     -3.06582879	     38.59823203	      0.67366623	      2.42672498	     -8.59595665	     -7.49999987	    -11.55884352	      5.76369011	      5.38786311	     10.31400423	    -15.35319619	     -2.12745697	     38.11830324	     72.73415126	     -4.74781576	     -6.38878637	     -5.09288212	     18.67477090	     68.13513302
     44.61666670	     -1.63947692	     -2.04204276	      1.16885976	      0.70195590	      1.04713781	      0.91408027	     -3.92935235	      3.92002591	     -5.85423928	      7.58266170	      0.13234241	     14.54783422	      0.52122210	     -7.49999987	     27.16186668	     -7.09615983	     -3.95457484	     33.60685386	      0.58655025	      2.71216066	     -7.42749024	     -7.49999987	    -11.54794119	      5.63604427	      6.01829925	     10.18528873	    -15.89750218	     -2.76146719	     40.09780253	     72.47539326	     -5.53492002	     -6.28906997	     -4.66686210	     17.13513295	     67.94968063
     44.63333330	     -1.66781175	     -1.95133680	      1.13817822	      0.70345295	      1.04645858	      0.91288043	     -5.73635629	      3.79751190	     -5.80378408	      6.51510191	      0.11370998	     14.86013595	      0.94438041	     -7.49999987	     27.32195622	     -6.67725045	     -4.53690881	     28.32387179	      0.49434482	      3.06771270	     -6.00883987	     -7.49999987	    -11.58152104	      5.57339787	      6.08016408	     10.35286815	    -16.19458816	     -3.02251043	     40.92870305	     72.51001525	     -6.60882446	     -6.16524467	     -4.59766678	     16.01861078	     67.88808319
     44.65000000	     -1.92417689	     -1.95430711	      1.05183303	      0.70483685	      1.04461417	      0.91103874	     -7.31785700	      3.80636221	     -5.30462230	      5.50081464	      0.09600733	     14.40780798	      0.52341590	     -7.49999987	     27.40930880	     -6.26765704	     -4.82923582	     22.81755869	      0.39824153	      3.64683339	     -4.19495161	     -7.49999987	    -11.22385337	      5.57309980	      6.56014444	     10.06865061	    -16.58539899	     -3.16493135	     41.34246240	     72.42294677	     -7.46981645	     -6.02042787	     -4.60192876	     15.13037990	     67.69702449
     44.66666670	     -2.00542269	     -2.01353837	      1.39102549	      0.70349898	      1.04035769	      0.90825935	     -8.96469261	      3.89435987	     -5.68677712	      4.66077946	      0.08134595	     14.19851079	      1.06946261	     -7.49999987	     27.27624445	     -5.64881019	     -4.20562351	     17.44535464	      0.30447888	      4.50899303	     -2.26563178	     -7.49999987	    -11.21499875	      5.70248316	      6.48330001	      9.75021804	    -16.82782028	     -3.40312279	     42.14659103	     71.78669066	     -8.26318641	     -5.92886631	     -4.67625837	     14.70804272	     67.16410155
